<svg width="159" height="37" viewBox="0 0 159 37" fill="none" xmlns="http://www.w3.org/2000/svg">
<path d="M75.1664 17.535V20.2114H64.045V17.535H75.1664Z" fill="#0F62FE"/>
<path d="M77.8411 26.2017V9.232H81.4213V16.2337H88.6894V9.232H92.2616V26.2017H88.6894V19.1918H81.4213V26.2017H77.8411ZM110.775 17.7169C110.775 19.5674 110.425 21.1417 109.725 22.4399C109.03 23.738 108.082 24.7296 106.881 25.4145C105.684 26.094 104.339 26.4337 102.845 26.4337C101.341 26.4337 99.99 26.0912 98.7939 25.4062C97.5977 24.7213 96.6524 23.7297 95.9575 22.4316C95.2629 21.1334 94.9157 19.5619 94.9157 17.7169C94.9157 15.8663 95.2629 14.292 95.9575 12.9938C96.6524 11.6957 97.5977 10.7069 98.7939 10.0275C99.99 9.34247 101.341 9 102.845 9C104.339 9 105.684 9.34247 106.881 10.0275C108.082 10.7069 109.03 11.6957 109.725 12.9938C110.425 14.292 110.775 15.8663 110.775 17.7169ZM107.145 17.7169C107.145 16.5181 106.966 15.5073 106.608 14.6842C106.255 13.8611 105.756 13.2369 105.111 12.8115C104.466 12.3862 103.711 12.1735 102.845 12.1735C101.98 12.1735 101.225 12.3862 100.58 12.8115C99.9348 13.2369 99.4332 13.8611 99.0749 14.6842C98.722 15.5073 98.5457 16.5181 98.5457 17.7169C98.5457 18.9156 98.722 19.9264 99.0749 20.7495C99.4332 21.5726 99.9348 22.1968 100.58 22.6222C101.225 23.0475 101.98 23.2602 102.845 23.2602C103.711 23.2602 104.466 23.0475 105.111 22.6222C105.756 22.1968 106.255 21.5726 106.608 20.7495C106.966 19.9264 107.145 18.9156 107.145 17.7169ZM123.887 9.232H127.467V20.2524C127.467 21.4897 127.172 22.5724 126.583 23.5005C125.999 24.4285 125.18 25.1521 124.127 25.6714C123.074 26.1851 121.848 26.442 120.447 26.442C119.042 26.442 117.812 26.1851 116.76 25.6714C115.707 25.1521 114.888 24.4285 114.304 23.5005C113.719 22.5724 113.427 21.4897 113.427 20.2524V9.232H117.008V19.9458C117.008 20.5921 117.148 21.1666 117.429 21.6693C117.716 22.1719 118.118 22.5669 118.637 22.8542C119.155 23.1414 119.758 23.285 120.447 23.285C121.142 23.285 121.745 23.1414 122.258 22.8542C122.776 22.5669 123.176 22.1719 123.457 21.6693C123.744 21.1666 123.887 20.5921 123.887 19.9458V9.232ZM130.413 26.2017V9.232H137.094C138.373 9.232 139.465 9.46123 140.369 9.91973C141.278 10.3727 141.97 11.0163 142.444 11.8504C142.924 12.679 143.164 13.654 143.164 14.7753C143.164 15.9022 142.921 16.8717 142.436 17.6837C141.951 18.4902 141.248 19.1089 140.327 19.5398C139.412 19.9706 138.304 20.1861 137.003 20.1861H132.53V17.3026H136.424C137.108 17.3026 137.676 17.2086 138.128 17.0208C138.58 16.833 138.916 16.5513 139.137 16.1757C139.362 15.8 139.476 15.3332 139.476 14.7753C139.476 14.2119 139.362 13.7368 139.137 13.3501C138.916 12.9635 138.577 12.6707 138.119 12.4718C137.667 12.2674 137.097 12.1652 136.408 12.1652H133.993V26.2017H130.413ZM139.558 18.4792L143.767 26.2017H139.815L135.697 18.4792H139.558ZM154.88 14.1124C154.814 13.444 154.53 12.9248 154.028 12.5547C153.527 12.1846 152.846 11.9995 151.986 11.9995C151.402 11.9995 150.908 12.0824 150.506 12.2481C150.104 12.4083 149.795 12.632 149.58 12.9193C149.371 13.2065 149.266 13.5324 149.266 13.897C149.255 14.2008 149.318 14.466 149.456 14.6925C149.599 14.919 149.795 15.1151 150.043 15.2808C150.291 15.441 150.578 15.5818 150.903 15.7034C151.228 15.8194 151.575 15.9188 151.945 16.0017L153.466 16.3662C154.205 16.532 154.883 16.7529 155.5 17.0291C156.118 17.3053 156.652 17.645 157.104 18.0483C157.556 18.4515 157.906 18.9266 158.154 19.4735C158.408 20.0204 158.538 20.6473 158.543 21.3544C158.538 22.3929 158.273 23.2933 157.749 24.0556C157.231 24.8124 156.481 25.4007 155.5 25.8205C154.524 26.2348 153.348 26.442 151.969 26.442C150.602 26.442 149.412 26.2321 148.398 25.8123C147.389 25.3924 146.6 24.771 146.033 23.9479C145.47 23.1193 145.175 22.0946 145.148 20.8738H148.612C148.651 21.4428 148.814 21.9178 149.1 22.299C149.392 22.6746 149.781 22.9591 150.266 23.1525C150.757 23.3403 151.311 23.4342 151.928 23.4342C152.535 23.4342 153.061 23.3458 153.507 23.169C153.96 22.9923 154.309 22.7464 154.558 22.4316C154.806 22.1167 154.93 21.7549 154.93 21.3461C154.93 20.965 154.817 20.6446 154.591 20.3849C154.37 20.1253 154.045 19.9044 153.615 19.7221C153.19 19.5398 152.67 19.374 152.052 19.2249L150.208 18.7609C148.78 18.4129 147.653 17.8688 146.827 17.1285C146 16.3883 145.589 15.3913 145.594 14.1373C145.589 13.1098 145.862 12.2122 146.413 11.4444C146.97 10.6765 147.733 10.0772 148.703 9.6463C149.674 9.21543 150.776 9 152.011 9C153.268 9 154.365 9.21543 155.302 9.6463C156.244 10.0772 156.978 10.6765 157.501 11.4444C158.025 12.2122 158.295 13.1016 158.311 14.1124H154.88Z" fill="white"/>
<path d="M2 26.2017V9.232H13.4107V12.1901H5.58032V16.2337H12.8237V19.1918H5.58032V23.2436H13.4438V26.2017H2ZM19.1761 26.2017H15.3394L21.1853 9.232H25.7992L31.6369 26.2017H27.8002L23.5584 13.1098H23.4261L19.1761 26.2017ZM18.9363 19.5315H27.9987V22.3321H18.9363V19.5315ZM42.4749 14.1124C42.409 13.444 42.125 12.9248 41.6234 12.5547C41.1217 12.1846 40.4408 11.9995 39.581 11.9995C38.9965 11.9995 38.5032 12.0824 38.1011 12.2481C37.6986 12.4083 37.3899 12.632 37.1747 12.9193C36.9655 13.2065 36.8607 13.5324 36.8607 13.897C36.8497 14.2008 36.9129 14.466 37.0509 14.6925C37.194 14.919 37.3899 15.1151 37.6377 15.2808C37.8859 15.441 38.1726 15.5818 38.4979 15.7034C38.8229 15.8194 39.1705 15.9188 39.5397 16.0017L41.0612 16.3662C41.7997 16.532 42.4779 16.7529 43.0953 17.0291C43.7126 17.3053 44.2472 17.645 44.6992 18.0483C45.1513 18.4515 45.5012 18.9266 45.7494 19.4735C46.0028 20.0204 46.1326 20.6473 46.1379 21.3544C46.1326 22.3929 45.8678 23.2933 45.3442 24.0556C44.826 24.8124 44.0765 25.4007 43.0953 25.8205C42.1197 26.2348 40.9425 26.442 39.5643 26.442C38.1975 26.442 37.0067 26.2321 35.9925 25.8123C34.9836 25.3924 34.1953 24.771 33.6276 23.9479C33.0653 23.1193 32.7704 22.0946 32.7428 20.8738H36.2074C36.246 21.4428 36.4086 21.9178 36.6954 22.299C36.9874 22.6746 37.3759 22.9591 37.8612 23.1525C38.3519 23.3403 38.9057 23.4342 39.5231 23.4342C40.1295 23.4342 40.6561 23.3458 41.1024 23.169C41.5545 22.9923 41.9044 22.7464 42.1526 22.4316C42.4007 22.1167 42.5248 21.7549 42.5248 21.3461C42.5248 20.965 42.4117 20.6446 42.1855 20.3849C41.965 20.1253 41.64 19.9044 41.2099 19.7221C40.7854 19.5398 40.2645 19.374 39.6472 19.2249L37.8034 18.7609C36.3757 18.4129 35.2484 17.8688 34.4215 17.1285C33.5945 16.3883 33.1838 15.3913 33.1893 14.1373C33.1838 13.1098 33.4567 12.2122 34.008 11.4444C34.5648 10.6765 35.3282 10.0772 36.2985 9.6463C37.2685 9.21543 38.3712 9 39.6059 9C40.8626 9 41.9597 9.21543 42.8967 9.6463C43.8394 10.0772 44.5725 10.6765 45.0961 11.4444C45.62 12.2122 45.8901 13.1016 45.9064 14.1124H42.4749ZM47.5539 9.232H51.5645L55.4258 16.5402H55.5911L59.4526 9.232H63.4629L57.2862 20.2026V26.2017H53.7306V20.2026L47.5539 9.232Z" fill="white"/>
</svg>
